<?xml version="1.0" standalone="no"?>
<!DOCTYPE svg PUBLIC "-//W3C//DTD SVG 20010904//EN"
 "http://www.w3.org/TR/2001/REC-SVG-20010904/DTD/svg10.dtd">
<svg version="1.0" xmlns="http://www.w3.org/2000/svg"
 width="5209.000000pt" height="5210.000000pt" viewBox="0 0 5209.000000 5210.000000"
 preserveAspectRatio="xMidYMid meet">

<g class="svg" transform="translate(0.000000,5210.000000) scale(0.100000,-0.100000)"
fill="#000" stroke="none">
<path d="M39670 45088 c-13 -34 -32 -1055 -19 -1079 13 -25 65 -26 77 -1 5 9
12 175 16 367 3 193 9 427 12 521 7 192 2 214 -47 214 -21 0 -32 -6 -39 -22z"/>
<path d="M17539 44983 c-22 -43 -127 -244 -233 -447 l-191 -369 -301 -2 -300
-1 -235 440 c-205 386 -238 441 -259 444 -39 4 -933 -244 -947 -263 -7 -11
-10 -44 -7 -93 5 -93 22 -478 29 -657 3 -71 8 -160 11 -197 l5 -67 -83 -42
c-98 -49 -246 -135 -343 -199 -39 -25 -75 -49 -81 -53 -6 -3 -202 113 -435
258 -233 146 -430 265 -439 265 -25 0 -700 -682 -700 -707 0 -20 85 -157 423
-684 59 -92 107 -172 107 -178 0 -7 -13 -31 -29 -54 -43 -64 -168 -281 -216
-377 l-43 -86 -44 2 c-23 1 -135 5 -248 8 -113 4 -317 11 -453 16 -228 9 -287
6 -287 -15 0 -2 -54 -211 -121 -465 -66 -255 -117 -470 -114 -480 4 -12 56
-44 138 -86 73 -37 155 -79 182 -94 28 -15 154 -80 280 -145 127 -65 243 -127
260 -137 l29 -17 2 -283 c0 -156 3 -289 5 -297 3 -9 -134 -87 -439 -250 -333
-177 -444 -241 -448 -257 -8 -32 242 -936 263 -952 12 -9 42 -11 98 -8 113 7
261 14 560 26 143 6 281 12 308 15 l47 4 36 -72 c57 -112 120 -222 196 -338
l69 -107 -266 -425 c-146 -234 -265 -431 -265 -439 0 -7 80 -93 177 -190 l178
-178 -90 0 c-406 0 -791 -166 -1090 -469 l-80 -81 -81 0 -82 0 -47 88 c-26 48
-68 119 -93 157 -25 39 -45 75 -45 80 0 6 68 119 151 252 84 133 152 245 152
250 0 7 -149 157 -321 321 l-66 64 -129 -83 c-71 -45 -183 -117 -250 -159
l-121 -78 -80 52 c-44 28 -117 69 -162 91 l-82 40 7 270 c4 149 7 283 8 300
l1 30 -255 67 c-140 37 -260 67 -266 67 -6 1 -71 -116 -145 -259 l-134 -260
-170 0 c-93 0 -179 -3 -190 -5 -17 -5 -38 28 -154 247 -73 139 -138 258 -145
264 -8 8 -80 -8 -270 -60 l-259 -72 2 -95 c1 -53 4 -111 6 -130 2 -19 6 -109
10 -200 l7 -166 -109 -61 c-59 -34 -133 -78 -164 -97 l-56 -36 -241 151 c-132
82 -247 153 -255 156 -18 7 -390 -375 -382 -393 2 -7 72 -119 155 -248 82
-129 150 -238 150 -241 0 -3 -29 -54 -64 -112 -36 -59 -77 -133 -91 -165 -25
-53 -29 -58 -53 -53 -39 7 -572 19 -572 13 0 -3 -30 -119 -66 -257 -36 -138
-64 -256 -62 -262 2 -6 118 -70 258 -143 l255 -132 5 -191 5 -190 -260 -138
c-143 -76 -261 -139 -263 -140 -2 -1 30 -122 70 -268 l73 -266 55 4 c30 3 125
8 210 11 85 3 194 8 242 11 l87 6 39 -78 c22 -44 65 -118 95 -166 l55 -87
-154 -246 c-85 -136 -154 -250 -154 -253 0 -4 87 -93 192 -199 l193 -191 240
154 c132 86 245 157 251 160 6 3 47 -17 91 -44 43 -28 116 -68 161 -91 l82
-41 -1 -103 c0 -56 -4 -190 -8 -297 -5 -107 -8 -196 -7 -197 5 -7 505 -133
519 -131 13 2 54 71 135 228 65 124 124 238 133 254 l16 30 192 1 191 2 130
-246 c72 -135 134 -252 139 -260 7 -10 56 0 252 53 134 36 253 70 264 75 20 8
20 12 8 257 -6 137 -12 270 -12 296 l-1 48 78 39 c42 22 116 64 163 93 l85 54
251 -157 251 -156 31 31 31 31 0 -5952 0 -5952 -46 -7 c-75 -11 -172 3 -284
41 -168 57 -284 44 -419 -46 -89 -59 -131 -130 -131 -219 0 -41 13 -74 88
-222 108 -211 144 -321 183 -547 34 -202 54 -257 99 -274 21 -8 30 -17 27 -28
-7 -28 -178 -310 -186 -307 -4 2 -69 69 -145 150 -234 249 -467 452 -676 591
-470 311 -943 347 -1422 106 -584 -293 -1083 -1014 -1434 -2074 -242 -732
-384 -1497 -434 -2345 -17 -272 -4 -776 26 -1070 128 -1263 588 -2522 1323
-3625 884 -1326 2110 -2375 3516 -3009 497 -224 1123 -435 1655 -556 396 -91
657 -136 1135 -195 313 -39 570 -50 1120 -50 454 0 574 5 895 36 234 23 734
94 801 115 13 3 24 -12 47 -60 34 -73 20 -65 240 -147 424 -158 892 -293 1290
-374 301 -60 456 -78 677 -79 223 -1 232 1 299 70 73 76 95 183 57 284 -24 64
-99 198 -179 320 -71 108 -282 321 -457 459 -71 57 -132 105 -134 107 -2 2 26
17 62 33 100 45 355 184 512 279 641 389 1180 891 1552 1447 519 774 814 1804
817 2857 l1 258 6135 0 6135 0 28 -90 c71 -223 241 -382 477 -447 61 -17 142
-18 1215 -18 1289 0 1198 -5 1360 74 156 77 282 225 333 392 l27 89 161 0 161
0 6 -57 c17 -153 84 -307 178 -408 71 -75 136 -119 222 -148 61 -21 74 -22
937 -25 580 -2 902 1 955 8 258 34 450 260 489 575 3 22 5 43 6 48 0 4 73 7
163 7 l162 0 17 -71 c30 -123 82 -213 178 -310 66 -66 103 -94 167 -126 155
-78 85 -74 1393 -71 l1165 3 73 27 c145 54 259 141 336 257 115 172 117 186
131 936 3 154 7 379 10 500 3 121 7 342 10 490 6 319 13 669 20 995 3 129 7
350 10 490 3 140 7 359 10 485 3 127 7 345 10 485 9 473 15 784 20 1015 3 127
7 354 10 505 5 287 11 576 20 965 7 282 33 1583 40 2020 3 176 7 367 9 425 9
244 -49 405 -201 557 -57 56 -93 82 -165 117 -144 71 -188 76 -608 76 l-360 0
0 6243 c-1 3433 -3 6260 -6 6282 -64 511 -368 947 -821 1178 -121 61 -245 106
-390 139 -97 22 -104 22 -1148 25 l-1050 4 5 53 c5 53 7 55 65 98 115 85 159
157 160 264 0 60 -5 79 -32 132 -18 34 -33 71 -33 82 0 11 14 47 31 80 55 103
50 192 -16 290 l-35 52 51 56 c84 91 158 212 196 316 8 23 30 95 49 161 62
214 152 420 261 600 87 143 187 269 337 425 341 355 519 650 640 1060 64 219
90 405 90 660 0 393 -73 705 -249 1066 -128 261 -280 469 -502 684 -364 356
-785 571 -1288 661 -157 28 -475 34 -650 13 -999 -122 -1813 -850 -2056 -1838
-48 -199 -63 -328 -63 -556 -1 -231 13 -340 69 -556 86 -329 256 -662 480
-939 40 -49 137 -157 214 -239 78 -81 168 -183 200 -225 199 -261 333 -527
416 -827 47 -168 123 -324 209 -425 l64 -77 -34 -33 c-89 -86 -110 -217 -54
-324 38 -71 38 -98 0 -173 -37 -75 -41 -162 -10 -229 23 -51 98 -134 160 -177
43 -30 45 -33 46 -83 l2 -53 -6242 0 -6243 0 -46 98 c-88 184 -158 436 -192
695 l-15 116 46 88 c25 48 68 129 94 178 185 347 290 582 337 753 23 84 27
117 27 242 1 169 -12 226 -79 366 -249 517 -1069 950 -2040 1079 -207 27 -332
34 -605 30 -269 -3 -400 -15 -630 -56 -514 -91 -1005 -307 -1345 -591 l-91
-75 0 196 c0 211 -15 347 -58 537 -62 272 -169 502 -271 579 -25 20 -31 31
-27 51 6 31 -235 922 -257 947 -13 16 -26 18 -91 13 -75 -5 -112 -7 -570 -26
-135 -6 -271 -12 -302 -15 -32 -2 -58 -1 -58 3 0 14 -174 321 -235 413 l-63
96 264 424 c145 232 264 431 264 440 0 25 -676 693 -704 697 -17 2 -119 -58
-347 -204 -446 -285 -508 -324 -514 -324 -4 0 -72 40 -153 89 -81 49 -196 113
-256 142 l-108 54 6 255 c4 140 9 287 11 325 2 39 7 151 10 251 6 155 5 182
-8 193 -9 7 -76 28 -149 47 -73 19 -278 73 -455 119 -177 47 -331 85 -342 85
-15 0 -31 -20 -62 -77z m452 -118 c178 -47 353 -92 389 -101 36 -10 69 -21 74
-25 8 -7 2 -245 -20 -846 l-7 -162 110 -55 c132 -66 276 -148 399 -227 50 -33
98 -59 106 -59 8 0 199 117 423 261 224 143 413 263 420 266 8 3 138 -118 316
-295 l303 -299 -259 -413 c-142 -227 -260 -423 -263 -436 -3 -15 16 -52 60
-121 89 -135 159 -255 224 -386 l56 -110 196 7 c108 4 217 9 242 11 25 1 115
6 200 9 85 4 205 9 265 12 l110 6 110 -402 c61 -222 111 -408 113 -415 2 -9
-16 -6 -55 10 -136 55 -350 71 -529 40 -175 -31 -421 -128 -580 -230 -282
-181 -505 -434 -613 -697 -115 -283 -84 -542 89 -731 127 -138 311 -267 545
-382 321 -159 620 -235 865 -221 58 3 115 9 127 12 l22 6 -19 -68 c-10 -38
-35 -104 -55 -147 l-35 -79 -173 6 c-94 4 -215 9 -267 11 -52 2 -195 7 -317
11 l-221 7 -60 -119 c-71 -141 -139 -260 -223 -390 -36 -55 -59 -102 -57 -112
3 -9 123 -201 266 -426 144 -224 262 -412 262 -417 0 -5 -91 -101 -201 -214
l-202 -205 -251 0 -251 0 -263 165 c-145 91 -273 165 -284 165 -10 0 -63 -29
-116 -64 -118 -77 -264 -162 -383 -222 l-89 -44 -1657 0 -1658 0 -149 81 c-81
44 -201 114 -266 155 -64 40 -123 74 -130 74 -7 0 -122 -70 -256 -155 l-243
-155 -290 0 -289 0 -192 188 -192 187 262 419 c144 230 263 423 266 430 2 6
-39 79 -91 161 -52 83 -132 219 -176 303 l-82 154 -216 -7 c-119 -3 -223 -8
-231 -10 -18 -4 -381 -19 -489 -20 l-74 0 -113 410 c-62 226 -111 410 -111
411 5 3 378 202 612 326 l270 143 -2 354 c-1 280 -4 356 -15 366 -7 7 -177 97
-378 200 -201 104 -395 205 -431 224 l-65 36 107 410 c60 226 108 412 109 414
0 2 66 1 148 -2 263 -12 604 -21 737 -22 l130 0 53 105 c76 151 157 292 224
392 32 48 58 96 58 107 0 10 -56 106 -124 212 -68 107 -188 294 -266 417
l-142 222 297 305 c164 168 300 305 302 305 2 0 178 -109 391 -242 213 -133
405 -252 428 -265 l41 -23 79 52 c135 88 250 156 389 229 75 39 135 77 137 86
3 15 -2 157 -16 433 -13 260 -19 419 -20 490 l-1 74 410 112 c225 62 411 112
412 110 2 -1 89 -164 194 -362 105 -197 210 -395 234 -439 l43 -80 353 2 c273
2 355 5 364 15 7 7 83 150 170 318 300 580 289 560 306 554 9 -2 162 -43 340
-89z m21984 -1461 c592 -77 1167 -421 1540 -919 304 -406 458 -840 472 -1331
12 -402 -60 -737 -232 -1085 -114 -230 -235 -396 -441 -610 -238 -247 -353
-408 -484 -674 -81 -164 -130 -292 -176 -461 -47 -174 -111 -292 -223 -408
-117 -121 -267 -210 -426 -252 -103 -28 -498 -28 -600 0 -148 39 -303 127
-406 229 -124 121 -193 248 -253 462 -71 250 -180 490 -321 700 -99 148 -177
243 -337 411 -74 77 -159 172 -190 210 -263 328 -431 692 -503 1089 -22 121
-31 441 -16 576 61 535 280 1001 651 1383 197 203 383 337 645 466 231 114
446 180 695 215 136 19 460 18 605 -1z m-14052 -4838 c59 -7 109 -15 111 -17
2 -2 38 -69 81 -148 l78 -144 -2 -211 c-5 -605 113 -1098 343 -1437 84 -123
78 -161 -41 -259 -113 -92 -188 -216 -217 -360 -8 -41 -20 -156 -26 -255 -6
-99 -13 -205 -16 -235 -35 -338 -217 -481 -614 -482 -256 -1 -412 42 -591 162
-176 117 -333 278 -471 485 -33 50 -68 93 -78 97 -23 9 -60 -18 -60 -42 0 -48
181 -289 324 -432 168 -166 339 -274 519 -325 50 -14 93 -27 94 -28 2 0 5 -62
8 -136 15 -346 92 -563 248 -706 167 -152 471 -241 890 -261 l138 -7 -83 -61
c-611 -451 -1365 -714 -2273 -792 -316 -28 -775 -22 -1125 13 -168 17 -429 54
-448 64 -8 5 190 137 517 345 376 239 541 349 566 379 128 149 218 459 290
992 14 110 32 293 40 420 3 50 8 99 10 110 7 38 20 421 20 604 0 153 -2 185
-15 192 -8 4 -94 46 -190 92 -208 101 -312 167 -401 256 -79 79 -109 133 -109
197 0 59 21 103 82 169 122 134 278 145 462 34 64 -39 68 -40 92 -24 31 20 30
29 -7 122 -78 196 -119 453 -90 561 15 53 62 108 104 121 18 5 113 12 212 16
382 13 593 71 732 199 65 60 108 130 129 210 18 67 17 214 -1 301 -26 120 -27
132 -10 165 33 64 128 80 440 75 127 -3 279 -11 338 -19z m-4918 -51 c143 -4
262 -9 264 -11 13 -12 -273 -624 -413 -884 -98 -181 -226 -400 -234 -400 -4 0
-20 21 -37 48 -16 26 -130 204 -254 397 -219 342 -223 350 -209 375 9 14 51
84 94 156 44 73 102 177 129 232 59 118 41 111 260 101 77 -4 257 -10 400 -14z
m19069 -1071 c26 -10 38 -41 26 -64 -11 -21 -64 -39 -190 -65 -95 -19 -130
-12 -130 29 0 36 20 46 141 72 61 13 114 26 117 29 7 7 17 6 36 -1z m107 -364
c12 -7 19 -21 19 -41 0 -27 -6 -33 -53 -53 -143 -64 -342 -110 -549 -127 -123
-11 -139 -10 -162 5 -14 9 -26 25 -26 35 0 38 30 48 155 55 190 10 383 50 523
111 66 28 67 28 93 15z m-20924 -211 c98 -61 180 -113 182 -115 2 -2 -162 -4
-365 -4 l-369 1 58 32 c32 18 115 69 185 114 70 44 128 81 129 82 1 1 82 -49
180 -110z m-4535 28 c46 -29 118 -73 161 -98 l79 -44 -161 -3 c-89 -1 -234 -1
-323 0 l-162 3 149 97 c83 53 155 97 162 97 7 1 50 -23 95 -52z m5687 -9 c-85
-122 -100 -138 -127 -138 -24 0 -20 7 58 85 47 47 86 85 88 85 2 0 -7 -15 -19
-32z m-188 -256 c-5 -9 -51 -69 -101 -132 -353 -440 -772 -855 -1148 -1137
l-96 -73 -2231 -2 -2230 -3 -100 -27 c-386 -107 -676 -397 -783 -785 l-27 -98
-5 -8584 -5 -8583 -110 84 c-96 74 -112 90 -124 129 -146 450 -342 786 -634
1086 -195 200 -393 347 -620 459 l-97 49 0 38 c0 30 21 74 101 211 l101 174
76 7 c102 9 235 44 364 94 l105 41 -23 118 c-13 64 -36 163 -50 220 -14 56
-24 112 -20 125 4 16 22 29 67 46 33 14 64 31 67 39 2 8 -14 48 -37 90 -89
162 -221 461 -221 501 0 16 63 29 189 41 143 13 195 34 217 86 41 99 -56 298
-206 423 -113 95 -226 136 -346 129 -77 -5 -145 -33 -312 -128 l-72 -42 3
7109 2 7108 22 86 c110 441 372 777 753 969 108 54 188 84 314 118 l101 27
3555 5 c1955 3 3558 4 3563 2 4 -2 3 -11 -2 -20z m18923 -6 c187 -142 579
-188 859 -100 95 31 162 62 205 99 l31 26 1098 -4 c1203 -3 1125 1 1320 -63
343 -112 651 -374 816 -693 64 -124 99 -216 135 -361 l27 -105 2 -6272 3
-6273 -837 0 c-461 0 -848 -3 -860 -6 l-23 -6 -2 5753 -3 5754 -27 98 c-88
317 -292 566 -582 707 -102 50 -245 93 -345 103 -29 3 -55 7 -56 9 -2 2 16 27
41 57 24 29 44 57 44 62 0 19 -67 83 -105 100 -48 22 -143 24 -200 4 -21 -8
-40 -13 -41 -12 -2 1 44 65 102 141 57 77 104 147 104 157 0 27 -56 67 -117
85 -105 30 -218 1 -355 -92 -77 -53 -79 -53 -87 -31 -24 61 -103 94 -188 78
-157 -30 -305 -128 -648 -430 l-138 -121 -6514 0 c-5685 0 -6514 2 -6510 14 3
8 13 48 21 88 14 70 19 123 31 343 18 310 54 400 215 546 45 41 89 88 98 104
36 70 33 167 -8 226 -11 15 -20 31 -20 36 0 4 2809 7 6242 5 l6241 -2 31 -24z
m-28982 -31 c473 -71 898 -413 1076 -865 94 -237 122 -515 77 -765 -49 -277
-188 -539 -395 -745 -198 -198 -424 -320 -708 -382 -130 -29 -403 -31 -535 -5
-504 101 -910 457 -1072 939 -50 150 -69 268 -69 438 -3 541 296 1022 783
1261 263 128 541 169 843 124z m30556 -804 c10 -6 -45 -85 -209 -302 -212
-279 -238 -309 -518 -597 -163 -167 -299 -312 -303 -323 -8 -21 21 -59 46 -59
7 0 151 141 319 313 551 564 515 529 597 572 62 32 85 39 132 39 119 1 141 34
-412 -614 -317 -370 -500 -592 -500 -605 0 -27 18 -45 45 -45 11 0 169 117
370 275 315 247 350 272 353 251 6 -50 -14 -80 -257 -362 -380 -443 -600 -659
-864 -848 -221 -158 -476 -262 -654 -267 -34 -1 -68 -6 -75 -10 -10 -7 -13
-88 -14 -406 -1 -219 -4 -432 -7 -473 -4 -41 -9 -118 -12 -170 -7 -107 -23
-314 -30 -375 -2 -22 -7 -67 -10 -100 -113 -1076 -414 -2098 -839 -2850 -100
-177 -279 -441 -402 -595 -197 -247 -522 -554 -774 -732 -503 -354 -1134 -581
-1813 -653 -174 -19 -612 -37 -732 -30 -49 3 -153 7 -230 10 -430 15 -940 101
-1381 231 -330 97 -593 199 -909 355 -251 123 -257 127 -274 175 -7 21 -260
705 -561 1519 l-548 1480 -26 170 c-90 602 -130 870 -152 1015 -14 91 -40 271
-60 400 -19 129 -39 262 -44 295 -5 33 -33 213 -61 400 -27 187 -61 413 -75
503 -63 425 -73 496 -70 500 9 8 195 -188 256 -270 36 -48 119 -172 185 -275
512 -806 663 -1032 917 -1371 268 -358 474 -597 745 -863 374 -367 686 -596
1068 -784 331 -163 625 -250 985 -291 177 -20 566 -15 728 10 582 89 1104 327
1622 740 144 115 498 464 619 611 487 590 848 1290 948 1840 19 104 22 311 5
370 -21 72 -213 268 -397 405 -174 129 -385 239 -550 286 -75 22 -78 29 -45
117 60 159 205 191 435 94 98 -41 218 -82 311 -107 102 -28 304 -38 410 -21
102 17 403 105 467 137 184 93 391 255 880 688 429 380 577 493 702 536 115
40 165 21 150 -58 -6 -30 -72 -102 -433 -470 -235 -239 -430 -442 -434 -452
-9 -23 18 -60 44 -60 13 0 128 110 346 333 657 670 696 707 819 756 49 20 148
27 171 12z m-22040 -633 c-155 -105 -426 -255 -853 -473 -653 -333 -942 -529
-1272 -861 -1130 -1140 -1807 -3308 -1672 -5359 111 -1688 747 -3121 1794
-4043 694 -611 1531 -995 2525 -1157 86 -14 113 -23 153 -51 107 -74 297 -109
592 -109 116 0 248 4 295 8 119 12 331 51 485 91 72 19 175 39 230 46 317 37
768 133 1125 239 l134 40 51 -48 c126 -119 288 -194 504 -235 129 -25 227 -31
484 -31 130 0 236 -2 235 -5 -2 -3 -82 -162 -179 -355 -521 -1039 -904 -1947
-1162 -2755 -142 -442 -739 -2344 -899 -2860 -181 -585 -192 -640 -165 -767
25 -115 69 -196 152 -280 l71 -73 -36 -1 c-19 0 -129 0 -244 1 l-209 1 -81 41
c-187 94 -391 155 -616 184 -108 13 -181 16 -367 11 -128 -3 -233 -4 -233 -3
0 2 9 29 20 62 25 70 74 263 91 354 20 106 17 276 -5 339 -28 81 -150 255
-246 352 -138 139 -251 204 -436 251 -128 32 -442 32 -659 0 -201 -30 -599
-111 -820 -166 -472 -119 -1214 -378 -2245 -784 -69 -28 -126 -48 -128 -47 -2
2 6 22 18 45 53 105 79 301 43 332 -10 9 -23 17 -29 19 -6 2 155 263 358 579
203 316 422 659 488 762 66 102 120 190 119 195 0 9 -297 227 -314 230 -5 1
-104 -143 -220 -320 -115 -177 -349 -536 -520 -797 -170 -262 -338 -519 -373
-573 -34 -53 -68 -97 -74 -97 -7 0 -59 12 -117 26 -95 24 -117 26 -245 21
-162 -6 -236 -24 -361 -87 l-79 -40 -98 65 -98 65 2 8603 3 8602 27 96 c53
192 142 342 281 476 129 123 259 199 425 246 l77 22 2135 5 c1174 3 2145 3
2158 1 21 -3 20 -6 -20 -33z m20495 30 c27 -3 19 -12 -103 -118 -293 -254
-507 -414 -645 -480 -74 -35 -364 -117 -465 -131 -158 -23 -347 10 -561 97
-152 62 -219 82 -300 90 -161 16 -282 -60 -339 -213 -26 -71 -37 -167 -21
-187 7 -8 64 -31 126 -50 276 -87 585 -287 799 -518 94 -101 101 -121 92 -283
-17 -338 -200 -832 -484 -1305 -636 -1060 -1568 -1774 -2542 -1945 -347 -61
-738 -54 -1092 21 -769 162 -1529 704 -2244 1599 -301 377 -530 709 -995 1440
-139 220 -288 443 -330 495 -75 93 -201 221 -288 291 l-44 35 -28 189 c-16
107 -33 194 -41 201 -46 46 -528 48 -978 3 -532 -53 -1223 -165 -2149 -351
l-454 -90 -80 21 c-44 12 -99 30 -122 40 l-41 18 -22 124 c-34 192 -60 358
-85 556 l-24 182 46 6 c206 28 365 105 451 219 l39 51 6448 -2 c3546 -2 6461
-4 6476 -5z m1862 -14 c176 -35 343 -124 481 -256 177 -170 278 -373 303 -609
5 -49 10 -2465 10 -5770 l1 -5687 -60 -22 c-155 -58 -307 -211 -371 -372 -54
-137 -54 -172 -24 -2858 2 -256 10 -1103 17 -1884 l11 -1418 -24 -19 c-26 -19
-146 -81 -193 -99 l-28 -10 6 357 c3 197 9 486 11 643 3 157 7 418 10 580 3
162 7 441 10 620 3 179 7 449 10 600 7 411 14 843 20 1240 3 195 7 450 10 565
3 116 7 401 10 635 3 234 8 498 11 586 7 183 -6 312 -41 416 -74 219 -240 375
-432 407 -49 9 -354 11 -1073 9 l-1005 -3 -60 -24 c-202 -81 -334 -256 -380
-506 -15 -80 -17 -149 -11 -620 3 -291 8 -955 11 -1475 3 -520 7 -1096 10
-1280 3 -184 8 -890 11 -1567 l7 -1233 -118 0 -117 0 6 263 c7 288 13 573 21
977 3 146 7 357 10 470 3 113 7 338 10 500 3 162 7 385 10 495 3 110 7 333 10
495 3 162 7 383 10 490 3 107 7 323 10 480 3 157 12 598 20 980 20 965 20
1047 -6 1140 -50 181 -178 340 -339 418 -149 73 -159 74 -581 79 l-376 5 -6
79 c-21 264 57 678 229 1218 46 143 54 179 45 198 -7 14 -19 23 -34 23 -15 0
-127 -84 -326 -244 l-304 -245 -28 22 c-14 12 -115 104 -223 205 -119 111
-203 182 -215 182 -31 0 -46 -33 -79 -175 -73 -308 -115 -566 -132 -805 -8
-116 -4 -382 6 -432 l5 -26 -383 -5 c-359 -4 -388 -5 -458 -26 -239 -71 -407
-245 -472 -490 -19 -74 -20 -97 -14 -756 4 -374 11 -1186 16 -1805 5 -619 12
-1327 15 -1575 3 -247 8 -829 11 -1292 l7 -843 -864 -1 c-475 0 -975 -1 -1111
-2 -136 -1 -244 1 -240 4 4 3 86 11 182 18 96 7 193 14 215 17 197 24 243 41
309 115 51 57 79 129 78 203 -1 103 -211 996 -388 1649 -485 1794 -1268 4114
-2129 6317 -70 179 -129 330 -131 335 -3 6 56 66 131 134 131 121 321 321 405
429 440 563 608 1322 446 2025 -7 31 -12 57 -10 57 3 0 72 -34 154 -75 689
-345 1443 -544 2288 -605 64 -5 281 -7 482 -5 318 3 452 10 600 30 19 2 73 9
120 15 489 64 1035 249 1446 491 538 316 996 773 1352 1348 417 673 716 1531
876 2511 19 118 37 235 40 260 69 536 89 831 90 1327 l1 402 45 6 c358 48 726
276 1161 722 144 148 531 589 601 686 68 94 84 190 46 267 -38 74 -48 70 -248
-89 -96 -76 -177 -137 -178 -136 -2 2 114 141 257 309 177 206 268 306 283
308 39 5 119 -2 203 -18z m-11460 -831 c16 -9 23 -32 37 -125 10 -62 54 -354
98 -648 94 -632 91 -610 129 -865 17 -110 67 -441 111 -735 44 -294 84 -564
90 -600 5 -36 35 -231 65 -435 l55 -370 552 -1485 c303 -817 563 -1526 579
-1577 71 -235 94 -403 94 -688 -1 -251 -12 -353 -66 -566 -42 -169 -81 -275
-164 -444 -83 -169 -162 -296 -272 -435 -77 -97 -471 -496 -480 -486 -3 3 -43
97 -88 209 -45 112 -95 228 -111 258 -60 110 -183 203 -311 233 -77 17 -226
19 -528 6 -213 -9 -310 -15 -555 -36 -678 -56 -1476 -205 -2190 -409 -766
-219 -1623 -551 -2315 -897 -195 -98 -250 -135 -341 -229 -90 -93 -118 -138
-284 -447 -105 -195 -140 -252 -158 -257 -50 -12 -530 -5 -645 10 -345 45
-559 173 -682 407 l-36 67 23 14 c13 8 93 54 178 102 997 568 2266 1537 3511
2681 251 231 343 319 695 661 l291 282 184 6 c101 2 389 7 639 10 250 3 487 8
525 10 39 2 113 7 165 10 571 34 985 314 1042 705 22 149 -19 309 -100 393
-45 48 -219 173 -412 299 -462 300 -848 492 -1160 576 -80 21 -118 26 -240 26
-144 1 -146 1 -211 -31 -105 -52 -230 -147 -331 -251 -186 -193 -306 -400
-434 -752 l-52 -145 -44 -16 c-321 -120 -4570 -1610 -4575 -1605 -8 8 -5 1176
3 1301 7 112 -13 469 -36 654 -38 290 -103 572 -201 864 -79 236 -142 380
-359 822 -100 204 -223 460 -272 570 -147 326 -458 929 -495 962 -11 10 -53
63 -93 118 -82 112 -191 229 -263 282 -26 20 -46 37 -44 39 10 10 1013 280
1812 488 539 140 607 157 609 154 20 -46 12 -43 231 -83 334 -60 607 -80 1090
-80 394 1 587 15 900 66 740 121 1367 375 1893 766 132 98 202 160 202 179 0
25 -37 53 -62 48 -26 -5 -381 6 -375 13 6 5 553 113 877 172 954 174 1587 250
2050 247 146 -2 243 -7 255 -13z m-9594 -2015 c75 -25 176 -109 269 -223 65
-79 140 -185 140 -196 0 -4 -33 -31 -72 -60 -128 -92 -289 -233 -420 -367
-125 -128 -128 -130 -135 -104 -4 15 -8 137 -8 272 0 272 12 360 66 501 28 72
101 189 118 189 4 0 23 -5 42 -12z m964 -1488 c103 -212 246 -502 316 -645
234 -478 359 -845 434 -1282 54 -314 60 -416 58 -1013 -1 -278 -2 -656 -2
-840 l-1 -336 -462 -259 c-255 -143 -537 -301 -628 -352 -91 -50 -175 -99
-187 -108 -39 -27 -25 -85 20 -85 10 0 242 125 515 279 274 153 568 317 654
366 l157 87 2323 819 c1278 450 2342 826 2364 834 41 16 42 16 84 138 166 479
359 766 642 954 125 84 178 99 304 89 178 -13 375 -80 679 -231 395 -195 985
-574 1050 -673 25 -39 61 -139 53 -148 -3 -2 -360 118 -794 267 -840 288 -835
287 -842 228 -2 -14 3 -31 11 -37 11 -9 1607 -562 1623 -562 18 0 -29 -187
-54 -212 -6 -6 -312 80 -798 225 -533 158 -795 232 -809 227 -28 -10 -33 -65
-7 -79 11 -6 354 -110 763 -231 409 -121 755 -224 769 -229 24 -7 24 -8 -30
-62 -30 -30 -83 -74 -118 -97 l-62 -43 -168 46 c-504 140 -878 241 -1044 282
-183 47 -187 47 -207 29 -51 -46 -20 -70 144 -110 167 -41 1001 -267 1120
-303 16 -5 13 -8 -20 -20 -232 -81 -433 -96 -1455 -109 l-525 -6 -245 -242
c-1172 -1157 -2448 -2219 -3550 -2953 -734 -489 -1460 -867 -2030 -1056 -246
-82 -493 -143 -680 -167 -47 -6 -103 -13 -125 -16 -22 -4 -121 -6 -220 -6
-263 0 -465 34 -556 93 -319 204 -577 1050 -669 2189 -6 74 -13 155 -15 180
-2 25 -7 117 -11 205 -3 88 -8 174 -10 190 -5 43 -5 941 1 995 2 25 6 113 10
195 50 1270 341 2679 700 3395 223 445 541 824 939 1117 l101 74 150 -303 c83
-167 236 -476 340 -688z m16006 -6742 c-133 -444 -182 -696 -187 -986 l-5
-203 -431 1 c-238 0 -434 2 -436 4 -11 12 -13 360 -3 491 20 254 120 804 144
798 5 -1 98 -85 208 -187 139 -130 206 -186 222 -185 13 0 118 78 272 203 138
112 251 202 253 200 2 -1 -14 -62 -37 -136z m7097 -1863 c229 -54 394 -242
423 -482 6 -50 9 -193 7 -342 -4 -209 -8 -266 -23 -311 -60 -187 -181 -313
-361 -377 l-79 -28 -830 0 c-903 0 -879 -1 -1004 57 -83 39 -197 148 -240 227
-61 115 -69 173 -70 486 -1 312 6 372 59 479 72 147 225 264 385 296 22 4 407
8 855 9 687 1 825 -2 878 -14z m-3336 -63 c27 -13 64 -42 83 -65 56 -66 64
-105 62 -327 l-2 -195 -29 -53 c-16 -28 -44 -64 -63 -78 -75 -57 -23 -54
-1040 -54 -922 0 -939 1 -983 21 -60 27 -98 64 -126 124 -22 47 -24 61 -24
246 0 149 4 206 15 240 24 70 96 135 175 160 14 4 444 7 955 6 l930 -2 47 -23z
m-6 -1086 c109 -51 168 -142 167 -261 0 -117 -60 -211 -167 -261 l-51 -24
-906 0 c-1032 0 -965 -5 -1055 84 -140 140 -101 371 78 460 l52 26 915 0 916
0 51 -24z m-28408 -253 c12 -3 22 -12 22 -21 0 -63 145 -401 243 -565 26 -43
47 -80 47 -82 0 -2 -19 -6 -42 -10 -59 -10 -68 -16 -92 -66 -20 -43 -23 -44
-95 -61 -108 -25 -256 -41 -304 -33 -57 10 -76 21 -88 53 -19 48 -67 253 -99
417 -17 88 -33 168 -36 177 -3 10 -24 29 -46 42 l-41 24 39 25 c137 86 261
120 399 111 39 -3 80 -8 93 -11z m-2582 -358 c249 -44 520 -185 804 -421 115
-95 570 -548 570 -567 0 -7 -24 -53 -53 -102 -42 -70 -66 -99 -107 -127 -29
-21 -63 -38 -75 -38 -40 0 -179 -40 -242 -69 -192 -90 -390 -288 -546 -546
-270 -447 -468 -1135 -569 -1980 -30 -254 -33 -821 -5 -1035 43 -324 143 -711
227 -880 217 -430 651 -657 1235 -645 72 2 151 6 178 10 40 6 47 5 47 -9 0
-33 73 -243 121 -349 64 -140 161 -302 255 -428 102 -135 277 -315 366 -376
243 -168 577 -269 1048 -319 285 -30 857 -25 1254 12 345 31 885 108 1063 151
19 4 27 -5 57 -66 177 -350 329 -950 446 -1756 17 -115 49 -334 71 -485 209
-1440 352 -2125 514 -2455 70 -142 29 -135 351 -65 569 123 655 141 663 136 5
-3 11 -23 14 -43 4 -21 23 -89 42 -152 20 -62 33 -117 28 -121 -16 -13 -371
-68 -653 -100 -440 -49 -1099 -71 -1505 -49 -1085 58 -2073 267 -3005 634
-1415 557 -2638 1495 -3573 2740 -600 800 -1048 1686 -1322 2620 -123 420
-195 782 -260 1305 -36 297 -43 1155 -10 1385 2 17 7 62 10 100 11 135 55 462
90 665 137 788 345 1463 630 2045 317 646 679 1062 1100 1265 241 116 502 156
741 115z m1901 -37 c31 -34 83 -108 83 -119 0 -11 -51 -29 -81 -29 -61 0 -117
97 -90 156 15 34 51 31 88 -8z m32767 -169 c50 -14 118 -82 134 -135 15 -52
16 -264 0 -315 -6 -22 -26 -57 -45 -78 -65 -76 18 -72 -1265 -69 l-1146 3 -44
30 c-23 17 -54 51 -68 75 -24 43 -25 53 -25 195 0 135 3 154 23 192 24 45 69
84 117 101 42 15 2265 16 2319 1z m-32727 -371 c70 -72 71 -75 107 -191 33
-105 42 -123 84 -166 32 -33 64 -55 100 -67 28 -10 52 -23 52 -29 0 -5 -56
-106 -124 -223 -79 -135 -122 -219 -119 -231 3 -11 29 -36 59 -56 30 -21 72
-58 93 -84 45 -55 87 -128 78 -137 -11 -11 -329 -7 -417 5 -196 27 -398 90
-575 179 -117 58 -230 131 -219 141 5 5 70 49 144 98 l135 90 174 299 c244
418 241 415 276 430 58 26 76 19 152 -58z m32755 -493 c128 -89 113 -281 -27
-346 -38 -18 -93 -19 -1183 -19 -1239 0 -1180 -3 -1241 53 -58 54 -77 156 -42
233 20 44 72 90 118 104 15 5 546 8 1180 7 l1151 -2 44 -30z m-33775 -357
c-11 -33 49 -84 213 -180 219 -129 453 -208 721 -243 206 -27 498 -15 527 23
16 21 10 48 -28 130 l-30 64 48 -28 c156 -90 356 -248 483 -381 412 -431 653
-999 732 -1725 3 -25 -4 -30 -107 -78 -264 -123 -580 -237 -1271 -459 -258
-82 -510 -164 -559 -181 -49 -16 -90 -29 -92 -27 -1 1 -7 70 -13 152 -6 83
-13 175 -16 205 -2 30 -7 98 -10 150 -3 52 -8 111 -10 130 -2 19 -7 85 -10
145 -15 267 -24 339 -42 352 -22 17 -35 16 -58 -1 -19 -13 -18 -25 19 -557 21
-299 39 -559 40 -578 l1 -34 -215 -82 c-592 -224 -943 -416 -1193 -654 -42
-41 -79 -72 -81 -70 -15 17 -71 299 -90 449 -25 206 -27 240 -30 452 -10 802
210 1831 515 2408 103 194 249 392 362 490 40 36 185 139 195 140 2 0 2 -6 -1
-12z m2990 -2048 c45 -30 82 -58 83 -61 0 -14 -298 -213 -308 -204 -1 1 -12
65 -23 141 -11 76 -29 179 -40 229 -10 49 -19 95 -19 102 0 7 51 -25 113 -70
62 -45 149 -107 194 -137z m858 15 c144 -40 273 -51 425 -36 72 6 137 14 145
17 10 4 15 0 15 -14 0 -45 -163 -110 -335 -136 -49 -7 -144 -14 -210 -15 -125
-2 -145 -8 -145 -46 0 -41 21 -47 161 -46 151 0 288 21 407 60 45 15 82 25 82
23 0 -2 -11 -25 -25 -51 -55 -100 -223 -161 -485 -176 -63 -4 -121 -12 -127
-17 -18 -14 -16 -53 2 -68 19 -16 240 -8 323 10 29 7 55 10 58 7 9 -8 -121
-86 -236 -141 -105 -50 -260 -107 -368 -136 -40 -10 -48 -19 -106 -109 -346
-534 -825 -1024 -1336 -1366 -401 -268 -790 -440 -1221 -538 -262 -61 -357
-72 -609 -71 -209 0 -233 2 -345 28 -363 84 -606 271 -758 584 -24 49 -52 119
-62 155 l-18 65 44 52 c98 117 319 280 544 402 351 192 702 325 1648 629 276
89 577 188 671 221 546 192 905 366 1124 545 46 37 104 83 130 100 53 37 168
79 257 93 94 14 248 4 350 -25z m3287 -227 c38 -31 31 -44 -118 -205 -470
-508 -879 -1080 -1169 -1636 l-85 -164 113 -22 c349 -69 699 -175 895 -272
160 -78 230 -145 314 -299 63 -114 198 -443 205 -500 6 -41 -13 -63 -48 -58
-28 4 -27 3 -95 183 -101 268 -201 448 -286 514 -346 268 -1746 526 -3718 686
-36 3 -87 7 -115 10 -27 2 -90 7 -140 10 -181 11 -205 18 -205 60 0 50 9 51
333 26 165 -12 307 -24 316 -26 9 -1 57 -6 106 -9 248 -19 983 -97 1283 -137
337 -44 891 -130 929 -144 7 -2 36 41 69 103 124 234 150 282 222 402 179 302
466 707 694 983 197 237 450 507 475 507 5 0 16 -6 25 -12z m2336 -538 c419
-49 793 -239 1122 -570 516 -518 846 -1323 939 -2290 15 -157 18 -262 16 -545
-3 -441 -26 -675 -101 -1055 -167 -844 -498 -1555 -995 -2136 -433 -506 -991
-930 -1675 -1272 l-162 -81 -98 69 c-55 39 -102 78 -106 87 -4 10 -33 164 -63
343 -31 179 -83 469 -116 645 -33 176 -71 381 -85 455 -49 266 -234 1181 -299
1480 -145 665 -300 1305 -420 1724 -36 127 -65 235 -65 242 0 7 41 82 91 166
585 980 1098 1974 1335 2585 l59 151 110 9 c139 11 387 8 513 -7z m21304 -709
l3 -601 -138 0 -139 0 6 408 c8 519 15 715 24 722 4 4 39 18 77 33 39 15 88
38 110 51 38 23 40 23 47 6 4 -10 8 -288 10 -619z m-6889 412 c4 -38 7 -281 7
-540 l0 -473 -3806 0 -3806 0 -61 56 c-121 109 -306 173 -457 158 -143 -14
-286 -80 -375 -173 l-39 -41 -2062 0 -2062 0 -76 139 c-87 160 -182 306 -286
441 -95 123 -321 348 -434 433 l-89 67 6770 0 6770 0 6 -67z m3779 -435 c2
-277 2 -520 0 -540 l-3 -38 -131 0 -130 0 6 418 c4 229 9 462 11 517 3 55 5
110 5 123 0 22 2 22 120 22 l120 0 2 -502z m-11732 -474 c381 -89 517 -572
240 -853 -121 -123 -313 -179 -480 -140 -127 29 -271 139 -332 255 -105 196
-69 442 87 599 130 131 306 182 485 139z m10792 6 c53 -15 118 -68 153 -125
27 -44 30 -56 30 -134 0 -98 -16 -142 -75 -201 -20 -20 -54 -45 -75 -55 -39
-20 -66 -20 -1145 -20 l-1105 0 -40 22 c-60 31 -119 101 -140 163 -46 140 29
295 168 347 43 15 2173 18 2229 3z m-11455 -213 c2 -2 -6 -25 -17 -51 -67
-150 -63 -338 9 -493 l30 -63 -1906 2 -1905 3 -43 140 c-44 146 -94 286 -139
392 -14 34 -26 66 -26 70 0 8 3989 7 3997 0z m15506 4 c4 -1 7 -138 7 -306 l0
-305 -145 0 -146 0 2 238 c2 130 5 267 7 304 l4 67 111 3 c98 3 127 2 160 -1z
m-6879 -17 c3 -9 6 -146 6 -305 l0 -289 -3785 0 c-2082 0 -3785 2 -3785 5 0 3
11 27 24 54 75 147 77 372 5 513 l-19 38 3774 0 c3432 0 3774 -1 3780 -16z
m3768 -51 c2 -38 5 -175 7 -305 l2 -238 -147 0 -146 0 6 128 c3 70 5 207 6
305 l0 177 134 0 134 0 4 -67z m-980 -591 c124 -61 211 -163 243 -287 20 -78
21 -348 1 -422 -43 -160 -171 -286 -327 -322 -28 -7 -379 -11 -959 -11 -998 0
-975 -1 -1082 57 -67 37 -143 121 -181 200 l-32 68 -3 192 c-5 256 12 315 117
427 57 60 103 89 178 115 57 20 78 20 1018 18 l960 -2 67 -33z m-11257 -102
c233 -186 560 -181 777 10 l46 40 3824 0 3825 0 6 -332 c4 -182 7 -389 7 -460
l0 -128 -6134 0 -6134 0 -7 68 c-31 327 -66 574 -105 740 -11 46 -20 90 -20
98 0 12 268 14 1926 14 l1926 0 63 -50z m12245 -197 c0 -137 1 -344 3 -460 l3
-213 -158 0 -159 0 6 258 c3 141 8 320 10 397 2 77 4 168 5 203 l0 62 145 0
145 0 0 -247z m3119 -213 l4 -460 -162 0 -161 0 6 408 c2 224 7 431 10 460 l5
52 147 0 147 0 4 -460z m-22350 -5365 l128 -89 -17 -26 c-59 -83 -211 -356
-208 -373 4 -27 30 -41 59 -33 18 4 49 48 124 178 55 94 102 178 103 185 5 20
8 18 129 -78 302 -240 403 -353 550 -609 83 -144 100 -196 85 -248 -16 -53
-55 -99 -101 -118 -30 -13 -62 -15 -186 -9 -83 3 -164 8 -180 10 -17 2 -70 9
-120 15 -440 52 -1172 251 -1728 467 -66 26 -70 29 -94 82 -50 115 -133 374
-133 418 0 16 17 22 103 40 56 12 251 54 432 93 612 133 725 157 725 152 0 -3
-49 -89 -110 -192 -60 -103 -110 -195 -110 -206 0 -43 54 -60 82 -26 16 18
213 352 249 421 20 38 25 42 55 39 23 -2 74 -31 163 -93z"/>
<path d="M16700 42674 c-745 -56 -1388 -400 -1818 -973 -279 -371 -459 -840
-487 -1266 -3 -49 -8 -111 -10 -136 -9 -79 14 -362 40 -502 47 -253 117 -462
232 -689 358 -708 1053 -1200 1858 -1314 146 -21 456 -24 600 -5 546 69 1035
299 1414 666 606 586 866 1396 715 2224 -22 120 -76 311 -119 421 -126 324
-290 581 -525 824 -384 396 -867 645 -1411 726 -126 19 -386 31 -489 24z m490
-119 c540 -86 1048 -362 1401 -758 298 -336 488 -732 569 -1188 29 -159 36
-520 15 -674 -65 -469 -241 -868 -543 -1234 -320 -386 -805 -675 -1312 -780
-332 -70 -697 -66 -1025 11 -409 95 -829 331 -1130 634 -722 727 -891 1851
-413 2754 362 685 1020 1139 1803 1244 138 19 496 14 635 -9z"/>
<path d="M38725 42869 c-357 -187 -655 -494 -836 -864 -334 -682 -239 -1499
243 -2090 61 -75 92 -89 120 -55 10 12 18 26 18 30 0 4 -25 38 -56 76 -117
143 -206 289 -280 463 -69 160 -102 283 -139 521 -9 60 -6 339 5 429 71 567
397 1066 887 1356 142 85 153 93 153 115 0 21 -25 50 -43 50 -7 0 -39 -14 -72
-31z"/>
<path d="M39613 41729 c-76 -13 -157 -46 -229 -95 l-64 -44 -67 16 c-188 44
-379 0 -496 -114 -83 -80 -127 -196 -127 -332 0 -123 37 -231 120 -355 416
-618 670 -1571 706 -2650 5 -169 8 -192 25 -207 24 -21 58 -12 69 18 5 12 7
62 5 111 -13 287 -17 359 -25 463 -51 612 -178 1188 -367 1669 -88 225 -189
421 -354 686 -61 97 -79 156 -80 260 -3 166 53 265 186 333 59 29 156 46 233
39 104 -9 107 -11 73 -60 -45 -66 -99 -180 -133 -280 -56 -168 -49 -341 20
-442 35 -50 101 -101 150 -115 147 -40 284 29 356 180 30 63 31 69 30 200 0
124 -3 143 -32 230 -37 111 -85 197 -148 260 l-44 46 52 31 c132 80 301 82
448 8 l50 -25 -44 -58 c-133 -172 -204 -427 -162 -577 43 -151 162 -247 306
-248 141 -2 239 79 269 221 38 180 -24 409 -158 586 -40 53 -49 71 -39 78 74
48 281 58 382 18 142 -55 225 -192 227 -370 1 -109 -23 -173 -181 -488 -76
-152 -173 -355 -215 -451 -301 -690 -503 -1370 -564 -1906 -18 -160 -21 -188
-27 -320 -6 -116 -5 -133 10 -148 22 -21 50 -22 70 -1 13 12 16 40 17 127 1
62 3 126 4 142 2 17 9 80 15 140 48 465 205 1048 438 1630 100 251 189 446
338 745 155 310 183 384 191 505 13 193 -88 385 -243 463 -151 75 -352 74
-503 -3 l-50 -25 -58 34 c-109 64 -260 93 -380 75z m493 -301 c112 -149 167
-330 145 -477 -14 -91 -41 -137 -95 -162 -108 -49 -235 5 -285 121 -27 62 -29
165 -6 255 29 116 149 325 185 325 5 0 30 -28 56 -62z m-702 -2 c50 -52 107
-163 132 -256 11 -40 18 -104 18 -165 0 -84 -3 -108 -23 -153 -77 -173 -278
-187 -357 -26 -53 109 -31 280 61 469 45 93 100 175 116 175 5 0 29 -20 53
-44z"/>
<path d="M41572 40848 c-5 -7 -15 -33 -22 -58 -27 -106 -76 -243 -125 -345
-144 -306 -339 -538 -618 -738 -90 -64 -101 -78 -92 -107 13 -40 51 -36 124
13 351 234 629 606 764 1023 45 138 54 189 37 209 -15 18 -54 20 -68 3z"/>
<path d="M39425 34128 c-119 -31 -281 -42 -420 -29 -68 7 -138 16 -156 21 -83
24 -196 7 -298 -43 -126 -62 -305 -262 -380 -425 l-25 -53 21 -21 c36 -36 62
-18 113 74 81 148 187 266 295 329 96 56 155 62 330 34 148 -24 401 -17 524
14 97 25 113 35 109 69 -5 43 -34 51 -113 30z"/>
<path d="M39925 25936 c-22 -33 -21 -369 1 -403 17 -27 46 -30 68 -7 13 13 16
46 16 209 0 163 -3 196 -16 209 -22 23 -51 20 -69 -8z"/>
<path d="M39337 25352 c-22 -24 -21 -38 3 -62 19 -19 32 -21 210 -20 154 1
193 4 205 16 21 22 19 61 -4 74 -12 6 -98 10 -209 10 -170 0 -191 -2 -205 -18z"/>
<path d="M40165 25354 c-22 -23 -15 -56 15 -71 40 -20 369 -18 398 3 26 18 28
46 6 68 -24 24 -395 24 -419 0z"/>
<path d="M39921 25112 c-5 -10 -10 -102 -11 -204 -1 -176 0 -188 20 -208 25
-25 42 -25 63 -2 15 16 17 46 17 206 0 110 -4 195 -10 207 -14 25 -66 26 -79
1z"/>
<path d="M11339 12640 c-465 -100 -882 -318 -1135 -593 -123 -134 -264 -371
-249 -418 7 -22 42 -39 63 -32 7 3 36 51 64 106 66 129 145 233 256 338 250
237 600 410 1021 504 155 34 178 47 160 93 -11 28 -57 29 -180 2z"/>
<path d="M11879 12438 c-176 -221 -301 -516 -355 -838 -19 -109 -26 -418 -11
-472 10 -37 36 -50 68 -35 l24 13 -3 159 c-5 223 18 391 80 585 59 185 156
375 263 518 46 61 54 89 33 110 -26 26 -57 13 -99 -40z"/>
<path d="M17652 7838 c-16 -16 -15 -53 2 -67 20 -17 326 -122 576 -197 548
-166 1103 -286 1532 -329 177 -18 198 -15 198 36 0 40 -14 44 -215 63 -482 44
-1235 223 -1875 445 -185 65 -199 68 -218 49z"/>
<path d="M36532 43748 c-17 -17 -15 -53 6 -70 14 -12 561 -311 718 -393 55
-28 84 -25 98 10 11 30 -13 53 -106 103 -51 27 -169 91 -263 142 -448 243
-427 234 -453 208z"/>
<path d="M42392 43552 c-395 -214 -415 -228 -382 -267 21 -25 59 -17 149 32
679 367 681 368 681 399 0 18 -29 44 -48 44 -9 0 -189 -94 -400 -208z"/>
<path d="M26020 43700 c-12 -7 -16 -43 -18 -191 -2 -99 -1 -192 2 -205 4 -14
18 -30 31 -36 21 -9 28 -8 45 7 19 17 20 31 20 215 0 139 -3 199 -12 208 -14
14 -47 15 -68 2z"/>
<path d="M25426 43104 c-19 -18 -20 -28 -6 -55 10 -18 23 -19 213 -19 213 0
227 3 227 45 0 42 -14 45 -221 45 -166 0 -200 -2 -213 -16z"/>
<path d="M26249 43099 c-8 -16 -8 -28 0 -45 l11 -24 203 0 c213 0 227 3 227
45 0 42 -14 45 -227 45 -196 0 -203 -1 -214 -21z"/>
<path d="M26024 42876 c-17 -13 -19 -30 -22 -198 -4 -208 2 -238 46 -238 50 0
52 9 52 221 0 193 -1 198 -22 213 -27 19 -29 20 -54 2z"/>
<path d="M36006 41964 c-19 -18 -20 -28 -6 -55 10 -18 25 -19 370 -19 345 0
360 1 370 19 14 27 13 37 -6 55 -13 14 -60 16 -364 16 -304 0 -351 -2 -364
-16z"/>
<path d="M42622 41968 c-7 -7 -12 -21 -12 -33 0 -44 6 -45 375 -45 369 0 375
1 375 45 0 12 -5 26 -12 33 -17 17 -709 17 -726 0z"/>
<path d="M28295 41805 c-237 -52 -420 -206 -504 -424 -51 -134 -52 -155 -49
-1251 l3 -1015 23 -70 c44 -129 89 -204 181 -295 90 -90 157 -131 271 -170 53
-19 94 -24 228 -27 l162 -5 0 -594 c0 -327 -1 -595 -2 -596 -1 -2 4 -13 11
-26 9 -18 19 -22 43 -20 28 3 61 47 449 618 l419 615 2733 5 2732 5 80 28
c197 70 339 194 426 372 79 162 74 87 74 1230 0 1147 5 1066 -77 1233 -71 145
-222 284 -374 346 -147 60 96 56 -3491 55 -2680 0 -3289 -3 -3338 -14z m6702
-100 c200 -47 378 -207 451 -407 l27 -73 3 -1007 c3 -1121 5 -1087 -64 -1228
-70 -141 -224 -270 -394 -327 -53 -17 -161 -18 -2790 -21 -1504 -1 -2740 -4
-2746 -6 -6 -2 -181 -255 -390 -561 l-379 -557 -5 550 c-3 348 -9 555 -15 560
-5 6 -91 12 -190 15 -192 5 -240 14 -338 62 -129 63 -245 194 -298 336 l-24
64 -3 1053 c-2 936 -1 1059 13 1114 64 245 272 425 518 447 40 3 1531 5 3315
4 2859 -3 3251 -5 3309 -18z"/>
<path d="M29945 40891 c-49 -22 -99 -77 -115 -126 -17 -53 -9 -162 16 -210 24
-47 85 -93 140 -105 22 -6 295 -9 619 -7 572 2 581 2 620 24 80 43 117 109
117 209 1 81 -15 123 -60 167 -71 69 -46 67 -704 67 -552 0 -596 -2 -633 -19z"/>
<path d="M32135 40898 c-109 -38 -170 -171 -135 -297 17 -64 82 -129 145 -146
67 -18 2044 -21 2127 -4 66 14 140 82 157 144 37 135 -22 265 -138 304 -46 15
-2112 14 -2156 -1z"/>
<path d="M29016 39895 c-88 -31 -136 -108 -136 -217 1 -124 58 -205 162 -228
33 -7 870 -10 2627 -10 2889 0 2634 -7 2710 75 65 71 80 178 37 270 -27 59
-46 77 -106 104 -45 21 -52 21 -2650 20 -2186 0 -2611 -2 -2644 -14z"/>
<path d="M9366 23888 c-13 -18 -16 -56 -16 -205 0 -170 1 -184 20 -203 25 -25
42 -25 63 -2 15 16 17 46 17 213 0 138 -3 198 -12 207 -19 19 -55 14 -72 -10z"/>
<path d="M8776 23301 c-23 -25 -13 -59 21 -72 14 -5 103 -9 197 -9 185 1 216
9 216 53 0 44 -13 47 -220 47 -182 0 -198 -1 -214 -19z"/>
<path d="M9598 23296 c-13 -31 -5 -54 24 -65 13 -5 100 -9 193 -10 183 0 218
7 223 47 7 49 -5 52 -224 52 l-204 0 -12 -24z"/>
<path d="M9359 23053 c-12 -32 -11 -371 2 -394 12 -23 44 -29 68 -12 20 13 21
23 21 212 0 212 -2 221 -52 221 -22 0 -31 -6 -39 -27z"/>
<path d="M34750 11389 c-155 -18 -225 -99 -235 -275 -10 -153 -14 -172 -42
-194 -35 -27 -56 -26 -181 15 -59 19 -125 37 -147 41 -57 8 -119 -11 -164 -52
-46 -41 -75 -124 -91 -258 -6 -49 -17 -104 -25 -122 -19 -45 -49 -45 -140 1
-91 46 -137 57 -197 44 -66 -15 -123 -69 -181 -173 -58 -105 -96 -149 -163
-192 -96 -61 -262 -97 -408 -87 -70 4 -92 -2 -107 -28 -8 -16 -7 -26 6 -46
l17 -26 147 6 c166 7 243 23 349 74 96 47 163 115 240 246 92 157 117 164 276
86 72 -35 92 -41 127 -36 92 12 131 74 154 247 18 124 41 192 73 209 36 19 96
12 208 -25 90 -30 119 -35 171 -32 116 7 158 67 169 238 3 58 10 122 15 142
11 45 55 84 112 99 39 11 69 10 218 -7 50 -6 58 -4 67 13 15 28 -6 65 -43 75
-54 15 -169 23 -225 17z"/>
<path d="M34911 10423 c-623 -454 -1506 -975 -2248 -1327 -1466 -694 -2947
-1114 -4418 -1251 -93 -9 -188 -18 -210 -20 -22 -2 -96 -7 -165 -11 -69 -3
-138 -8 -155 -10 -75 -8 -908 -11 -1060 -3 -1492 76 -2808 408 -4028 1015
-115 57 -238 120 -274 140 -55 31 -68 35 -89 25 -33 -15 -33 -63 0 -84 53 -35
403 -211 581 -293 858 -392 1828 -673 2775 -803 294 -41 661 -77 880 -86 74
-3 150 -8 168 -11 60 -9 865 -5 1057 6 2375 132 4705 936 6845 2363 224 149
484 332 501 354 9 10 10 22 3 41 -17 48 -49 39 -163 -45z"/>
<path d="M32420 9914 c-675 -324 -1497 -626 -2265 -833 -548 -148 -1249 -279
-1800 -336 -82 -9 -166 -18 -185 -20 -19 -3 -141 -12 -270 -21 -349 -25 -1264
-24 -1545 1 -430 39 -688 72 -1005 126 -518 88 -1110 241 -1569 406 -102 37
-128 43 -147 34 -24 -11 -32 -43 -16 -69 10 -15 347 -131 607 -207 739 -218
1467 -342 2310 -396 302 -19 1070 -16 1315 5 25 3 88 7 140 11 150 10 468 44
670 71 1171 157 2350 495 3490 1000 347 154 424 194 428 222 4 29 -14 52 -42
52 -11 0 -64 -21 -116 -46z"/>
</g>
</svg>
